<?xml version="1.0" encoding="UTF-8"?><svg id="Layer_1" xmlns="http://www.w3.org/2000/svg" viewBox="0 0 453.04 348.41"><defs><style>.cls-1{fill:#fff;stroke-width:0px;}</style></defs><path class="cls-1" d="M10.17,322.14H0v-8.27h29.82v8.27h-10.22v25.78h-9.44v-25.78Z"/><path class="cls-1" d="M33.95,313.87h16.1c5.25,0,8.8,1.36,11.09,3.65,1.99,2,3.02,4.67,3.02,7.93v.1c0,5.25-2.72,8.71-7,10.51l8.12,11.87h-10.85l-6.86-10.31h-4.18v10.31h-9.44v-34.05ZM49.66,330.21c3.16,0,5.06-1.56,5.06-4.04v-.1c0-2.72-1.99-4.09-5.11-4.09h-6.23v8.22h6.28Z"/><path class="cls-1" d="M69.17,313.87h9.44v34.05h-9.44v-34.05Z"/><path class="cls-1" d="M84.83,313.87h13.18c12.11,0,19.17,6.96,19.17,16.83v.1c0,9.88-7.15,17.12-19.36,17.12h-12.99v-34.05ZM94.27,322.19v17.37h3.84c5.69,0,9.44-3.11,9.44-8.61v-.1c0-5.5-3.75-8.66-9.44-8.66h-3.84Z"/><path class="cls-1" d="M122.09,313.87h27.39v7.98h-18.05v5.21h16.34v7.44h-16.34v5.4h18.29v8.03h-27.63v-34.05Z"/><path class="cls-1" d="M154.58,313.87h8.8l14.01,18v-18h9.34v34.05h-8.22l-14.59-18.68v18.68h-9.34v-34.05Z"/><path class="cls-1" d="M201.08,322.14h-10.17v-8.27h29.82v8.27h-10.22v25.78h-9.44v-25.78Z"/><path class="cls-1" d="M240.82,313.87h25.25v5.35h-19.26v8.85h17.07v5.4h-17.07v9.1h19.51v5.35h-25.49v-34.05Z"/><path class="cls-1" d="M271.12,342.96l3.6-4.28c3.31,2.87,6.52,4.43,10.75,4.43,3.7,0,6.03-1.75,6.03-4.28v-.1c0-2.38-1.36-3.79-7.69-5.2-7.25-1.7-11.33-3.94-11.33-10.17v-.1c0-5.84,4.86-9.88,11.63-9.88,5.01,0,8.85,1.51,12.36,4.28l-3.21,4.52c-3.11-2.29-6.13-3.5-9.24-3.5-3.5,0-5.54,1.75-5.54,4.04v.1c0,2.63,1.56,3.79,8.12,5.35,7.15,1.85,10.9,4.28,10.9,9.97v.1c0,6.42-5.01,10.17-12.16,10.17-5.25,0-10.12-1.75-14.2-5.45Z"/><path class="cls-1" d="M312.18,319.41h-10.85v-5.55h27.68v5.55h-10.85v28.51h-5.98v-28.51Z"/><path class="cls-1" d="M342.97,313.63h5.54l14.98,34.29h-6.32l-3.45-8.22h-16.1l-3.5,8.22h-6.13l14.98-34.29ZM351.53,334.4l-5.89-13.62-5.84,13.62h11.72Z"/><path class="cls-1" d="M373.32,319.41h-10.85v-5.55h27.68v5.55h-10.85v28.51h-5.98v-28.51Z"/><path class="cls-1" d="M396.37,313.87h25.25v5.35h-19.26v8.85h17.07v5.4h-17.07v9.1h19.51v5.35h-25.49v-34.05Z"/><path class="cls-1" d="M426.68,342.96l3.6-4.28c3.31,2.87,6.52,4.43,10.75,4.43,3.7,0,6.03-1.75,6.03-4.28v-.1c0-2.38-1.36-3.79-7.69-5.2-7.25-1.7-11.33-3.94-11.33-10.17v-.1c0-5.84,4.86-9.88,11.63-9.88,5.01,0,8.85,1.51,12.36,4.28l-3.21,4.52c-3.11-2.29-6.13-3.5-9.24-3.5-3.5,0-5.54,1.75-5.54,4.04v.1c0,2.63,1.56,3.79,8.12,5.35,7.15,1.85,10.9,4.28,10.9,9.97v.1c0,6.42-5.01,10.17-12.16,10.17-5.25,0-10.12-1.75-14.2-5.45Z"/><path class="cls-1" d="M288.82,214.46l-4.93-35.81,11.74,6.02-4.89-12.67-22.43-58.14-11.54-29.91,1.52,32.02,4.38,92.26-21.27,7.28-1.58-43.98,1.55.5,8.65,2.79-2-8.86-15.69-69.59-5.06-22.43-5.06,22.43-15.69,69.59-2,8.86,8.65-2.79,1.55-.5-1.58,43.98-21.27-7.28,4.38-92.26,1.52-32.02-11.54,29.91-22.43,58.14-4.89,12.67,11.74-6.02-4.93,35.81-13.77,22.76-4.96,8.2,9.58-.33,53.05-1.85-3.31,19.7-1.73,10.3,9.25-4.85,13.45-7.05,13.45,7.05,9.25,4.85-1.73-10.3-3.31-19.7,53.05,1.85,9.58.33-4.96-8.2-13.77-22.76ZM238.76,237.83l4.36,25.96-15.85-8.31-15.85,8.31,4.36-25.96-59.39,2.08,14.33-23.67,6.44-46.72-8.51,4.36,22.43-58.14-4.57,96.15,31.56,10.8,2.1-58.35-8.58,2.77,15.69-69.59,15.69,69.59-8.58-2.77,2.1,58.35,31.56-10.8-4.57-96.15,22.43,58.14-8.51-4.36,6.44,46.72,14.33,23.67-59.39-2.08Z"/><path class="cls-1" d="M393.06,126.6L227.27,0,61.49,126.6h32.5v117.82h25.96v-120.42l107.33-83.31,108.98,84.59v119.14h25.96v-117.82h30.85ZM114.76,239.24h-15.59v-112.63h15.59v112.63ZM227.27,34.13l-1.59,1.24c-.3.23-101.45,78.74-110.87,86.05h-38L227.27,6.52l150.46,114.9h-38l-110.87-86.05-1.59-1.23ZM357.03,239.24h-15.59v-112.63h15.59v112.63Z"/></svg>